# xmcd
#
# Track frame offsets: 
#        66900
#        98400
#        117000
#        139800
#        157950
#        176025
#        192375
#        214650
#        225675
#        242025
#        257625
#        277125
#
# Disc length: 4004 seconds
#
# Revision: 10
# Processed by: cddbd v1.5.2PL0 Copyright (c) Steve Scherf et al.
# Submitted via: ExactAudioCopyFreeDBPlugin 1.0
#
DISCID=b60c280c
DTITLE=Various Artist - Het Nationale Muziekkado 1995
DYEAR=1995
DGENRE=Pop
TTITLE0=René Froger and Friends - You've Got A Friend
TTITLE1=Clouseau - Cara Lucia
TTITLE2=Van Dik Hout - Alles Of Niets (Live)
TTITLE3=Laura Fygi - All I Ask Of You
TTITLE4=2 Unlimited - Nothing Like The Rain (Spanish Version)
TTITLE5=De Jazzpolitie - Doe Mij Jou Maar
TTITLE6=Gordon and Sugar Lee Hooper - Paradise By The Dashboardlight
TTITLE7=The Nits - Love Of My Life
TTITLE8=Frank Boeijen - Suzanne (Live)
TTITLE9=Robby Valentine - Over And Over Again (Acoustic Version)
TTITLE10=Loïs Laine - I Wanna Be (Mixed By Prince)
TTITLE11=André Rieu - Geen House Maar Strauß (Live)
EXTD=
EXTT0=
EXTT1=
EXTT2=
EXTT3=
EXTT4=
EXTT5=
EXTT6=
EXTT7=
EXTT8=
EXTT9=
EXTT10=
EXTT11=
PLAYORDER=
